<svg width="169" height="163" viewBox="0 0 169 163" fill="none" xmlns="http://www.w3.org/2000/svg">
<g filter="url(#filter0_d_235903_210)">
<path d="M62.1443 18.6345C57.1763 13.122 55.7853 9.35022 46.9423 3.06396C37.1058 3.06396 19.1218 20.4721 25.1827 29.7564C36.2116 42.0388 78.9359 43.296 84.5994 42.4256C85.2949 41.3618 65.6218 22.7931 62.1443 18.6345Z" fill="#FFCF48"/>
<path d="M57.077 16.7969C52.7052 11.4777 51.4135 7.89941 43.3654 2C34.5225 2 18.327 18.6344 23.7917 27.4352C33.7276 39.1373 72.1795 40.3945 77.2468 39.5241C77.9424 38.4603 60.1571 20.7621 57.077 16.7969Z" fill="#FFBC33"/>
<path d="M121.164 3.06396C112.321 9.25351 110.83 13.0253 105.962 18.6345C102.484 22.7931 82.7116 41.4585 83.6058 42.5223C89.1699 43.4894 131.994 42.1355 142.923 29.8531C148.885 20.4721 131 3.16068 121.164 3.06396Z" fill="#FFCF48"/>
<path d="M62.1443 18.6345C57.1763 13.122 55.7853 9.35022 46.9423 3.06396C37.1058 3.06396 19.1218 20.4721 25.1827 29.7564C36.2116 42.0388 78.9359 43.296 84.5994 42.4256C85.2949 41.3618 65.6218 22.7931 62.1443 18.6345Z" stroke="black" stroke-width="6" stroke-miterlimit="10"/>
<path d="M121.164 3.06396C112.321 9.25351 110.83 13.0253 105.962 18.6345C102.484 22.7931 82.7116 41.4585 83.6058 42.5223C89.1699 43.4894 131.994 42.1355 142.923 29.8531C148.885 20.4721 131 3.16068 121.164 3.06396Z" stroke="black" stroke-width="6" stroke-miterlimit="10"/>
<path d="M143.122 52.387H24.8846C18.3269 52.387 12.9615 57.6094 12.9615 63.9924V140.395C12.9615 146.778 18.3269 152 24.8846 152H143.122C149.68 152 155.045 146.778 155.045 140.395V63.9924C155.045 57.6094 149.68 52.387 143.122 52.387Z" fill="#FF563B"/>
<path d="M152.163 69.7952H26.9711C26.9711 70.0853 26.8718 70.2787 26.8718 70.5689V138.751C26.8718 144.457 31.5416 149.099 37.4038 149.099H141.731C151.17 149.776 152.263 145.327 152.263 138.751V70.5689C152.263 70.2787 152.163 70.0853 152.163 69.7952Z" fill="#FF6E50"/>
<path d="M143.122 52.387H24.8846C18.3269 52.387 12.9615 57.6094 12.9615 63.9924V140.395C12.9615 146.778 18.3269 152 24.8846 152H143.122C149.68 152 155.045 146.778 155.045 140.395V63.9924C155.045 57.6094 149.68 52.387 143.122 52.387Z" stroke="black" stroke-width="6" stroke-miterlimit="10"/>
<path d="M98.4103 63.0254H69.5962V152H98.4103V63.0254Z" fill="#FFCF48"/>
<path d="M93.4423 23.3735H74.5641C71.7821 23.3735 69.5962 25.5012 69.5962 28.2091V44.6501C69.5962 47.358 71.7821 49.4857 74.5641 49.4857H93.4423C96.2244 49.4857 98.4103 47.358 98.4103 44.6501V28.2091C98.4103 25.5012 96.2244 23.3735 93.4423 23.3735Z" fill="#FFCF48"/>
<path d="M98.4103 63.0254H69.5962V152H98.4103V63.0254Z" stroke="black" stroke-width="6" stroke-miterlimit="10"/>
<path d="M93.4423 23.3735H74.5641C71.7821 23.3735 69.5962 25.5012 69.5962 28.2091V44.6501C69.5962 47.358 71.7821 49.4857 74.5641 49.4857H93.4423C96.2244 49.4857 98.4103 47.358 98.4103 44.6501V28.2091C98.4103 25.5012 96.2244 23.3735 93.4423 23.3735Z" stroke="black" stroke-width="6" stroke-miterlimit="10"/>
<path fill-rule="evenodd" clip-rule="evenodd" d="M7 66.8936V53.354C7 46.3908 12.3654 40.7815 18.9231 40.7815H150.077C156.635 40.7815 162 46.3908 162 53.354V66.8936H7Z" fill="#FF563B" stroke="black" stroke-width="6" stroke-miterlimit="10"/>
<path fill-rule="evenodd" clip-rule="evenodd" d="M26.8718 63.7987V53.3538C26.8718 48.0347 31.4423 43.6827 37.0064 43.6827H148.984C155.144 43.1991 159.019 48.2281 159.119 53.3538V63.7987H26.8718Z" fill="#FF6E50"/>
</g>
<defs>
<filter id="filter0_d_235903_210" x="0" y="0.0546875" width="169" height="162.945" filterUnits="userSpaceOnUse" color-interpolation-filters="sRGB">
<feFlood flood-opacity="0" result="BackgroundImageFix"/>
<feColorMatrix in="SourceAlpha" type="matrix" values="0 0 0 0 0 0 0 0 0 0 0 0 0 0 0 0 0 0 127 0" result="hardAlpha"/>
<feOffset dy="4"/>
<feGaussianBlur stdDeviation="2"/>
<feComposite in2="hardAlpha" operator="out"/>
<feColorMatrix type="matrix" values="0 0 0 0 0 0 0 0 0 0 0 0 0 0 0 0 0 0 0.25 0"/>
<feBlend mode="normal" in2="BackgroundImageFix" result="effect1_dropShadow_235903_210"/>
<feBlend mode="normal" in="SourceGraphic" in2="effect1_dropShadow_235903_210" result="shape"/>
</filter>
</defs>
</svg>
